<?xml version="1.0" encoding="UTF-8" standalone="no"?>
<svg width="126px" height="23px" viewBox="0 0 126 23" version="1.1" xmlns="http://www.w3.org/2000/svg" xmlns:xlink="http://www.w3.org/1999/xlink">
    <!-- Generator: Sketch 48.1 (47250) - http://www.bohemiancoding.com/sketch -->
    <title>HSBC-logo-svg</title>
    <desc>Created with Sketch.</desc>
    <defs></defs>
    <g id="page-L-Copy-9" stroke="none" stroke-width="1" fill="none" fill-rule="evenodd" transform="translate(-100.000000, -62.000000)">
        <g id="HSBC-logo-svg" transform="translate(100.000000, 62.000000)" fill-rule="nonzero">
            <path d="M16.25,12.4 C16.25,12.4 16.25,20.05 16.25,20.05 C16.25,21 15.4,21.85 14.35,21.85 C13.8,21.85 13.3,21.85 13.3,21.85 L13.3,22.25 L22.1,22.25 L22.1,21.85 C22.1,21.85 21.65,21.85 21.05,21.85 C20,21.85 19.15,21 19.15,20.05 L19.15,12.3 C19.15,12.3 19.15,4.25 19.15,3 C19.15,2.05 20,1.2 21.05,1.2 C21.6,1.2 22.1,1.2 22.1,1.2 L22.1,0.8 L13.3,0.8 L13.3,1.2 C13.3,1.2 13.75,1.2 14.35,1.2 C15.45,1.2 16.25,2.05 16.25,3 C16.25,4.25 16.25,11.3 16.25,11.3 L5.85,11.3 C5.85,11.3 5.85,4.2 5.85,3 C5.85,2.05 6.7,1.2 7.75,1.2 C8.3,1.2 8.8,1.2 8.8,1.2 L8.8,0.8 L0,0.8 L0,1.2 C0,1.2 0.45,1.2 1.05,1.2 C2.15,1.2 2.95,2.05 2.95,3 C2.95,4.25 2.95,12.3 2.95,12.3 L2.95,20.05 C2.95,21 2.1,21.85 1.05,21.85 C0.5,21.85 2.22044605e-16,21.85 2.22044605e-16,21.85 L0,22.25 L8.8,22.25 L8.8,21.85 C8.8,21.85 8.35,21.85 7.75,21.85 C6.7,21.85 5.85,21 5.85,20.05 C5.85,20.05 5.85,12.4 5.85,12.4 L16.25,12.4 Z" id="Shape" fill="#000000"></path>
            <path d="M23.9,22.25 C24,21.7 24.25,21.35 24.6,21.15 C24.95,20.95 25.5,20.9 25.95,21.1 C26.65,21.35 28.6,22.55 30.85,22.55 C32.85,22.55 34.3,21.75 35.35,20.8 C36.45,19.8 37.2,17.9 37.15,16.65 C37.05,14.65 36.15,13.5 35.05,12.55 C32.9,10.7 28.1,7.95 27.35,7.05 C27,6.6 26.35,5.9 26.5,4.7 C26.7,3.15 27.6,2.3 29.55,1.9 C31.55,1.5 32.9,2.4 33.6,3 C34.3,3.65 35.3,5.35 35.6,7.65 L35.95,7.65 L35.95,0.8 L35.6,0.8 C35.5,1.35 35.3,1.6 35,1.75 C34.7,1.95 34.1,2 33.6,1.75 C33.1,1.5 31.6,0.45 29.6,0.45 C27.6,0.45 26.25,1.15 25.2,2.15 C24.2,3.1 23.7,4.55 23.7,5.8 C23.7,7.3 24.4,8.2 24.95,8.85 C25.4,9.35 26.9,10.55 28.6,11.65 C29.95,12.55 31.35,13.45 32.35,14.1 C33.95,15.15 34.1,16.25 34.15,17 C34.35,19.1 32.6,20.8 31.05,21.05 C29.1,21.35 27.05,20.65 25.95,19.4 C25.3,18.65 24.2,17.3 23.9,15 L23.55,15 L23.55,22.2 L23.9,22.2 L23.9,22.25 Z" id="Shape" fill="#000000"></path>
            <path d="M51.1,11.25 C54.95,12.55 56.05,15.3 55.35,18.1 C54.5,21.4 50.8,22.05 49.6,22.2 C49.05,22.25 47.65,22.25 46.3,22.25 C43.85,22.25 40.75,22.25 38.3,22.25 L38.3,21.85 C38.3,21.85 38.95,21.85 39.55,21.85 C40.35,21.85 41.3,21.15 41.3,20.15 C41.3,20.15 41.3,3.95 41.3,2.95 C41.3,1.9 40.4,1.25 39.6,1.25 C39,1.25 38.35,1.25 38.35,1.25 L38.35,0.8 C40.55,0.8 43.75,0.8 46,0.8 C47.85,0.8 48.85,1 49.5,1.1 C50.6,1.3 53.75,2.25 54.5,5.2 C55.05,7.55 53.9,10.4 51.1,11.25 Z M44.15,10.65 C45.2,10.9 48.35,11 49.55,10.25 C51.45,9.05 52.1,7.1 51.75,5.4 C51.55,4.35 51,3.45 50.05,2.75 C48.2,1.45 45.55,1.65 44.15,2.1 L44.15,10.65 Z M44.15,21.05 C45.65,21.5 48.5,21.85 50.45,20.45 C52.85,18.75 53.35,14.6 49.95,12.4 C48.6,11.55 45.25,11.6 44.1,11.85 L44.1,21.05 L44.15,21.05 Z" id="Shape" fill="#000000"></path>
            <path d="M75.35,0.95 L75.65,8.2 L75.2,8.2 C75,6.35 74.3,5.05 73.4,4.25 C73.15,4 72.65,3.5 72,3.1 C70.85,2.4 69.15,1.75 67.15,2.1 C64.1,2.65 62.55,4.65 61.75,6.6 C60.8,9 60.2,13.05 61.8,16.45 C63.1,19.25 65.65,20.4 67.65,20.7 C69.35,20.95 73.05,20.9 75.85,17.05 L76.3,17.35 C74.1,20.45 71.2,22.45 67.85,22.4 C63.6,22.35 60.9,20 59.65,18.6 C58.35,17.1 57.35,14.35 57.35,11.9 C57.35,9.75 57.8,7.3 58.6,5.9 C60,3.5 62.8,1.1 66.5,0.75 C69.25,0.5 71.1,1 72.65,1.9 C73.4,2.35 73.85,2.4 74.3,2.2 C74.7,2 75.05,1.65 75.05,0.95 L75.35,0.95 Z" id="Shape" fill="#000000"></path>
            <g id="Group" transform="translate(82.500000, 0.500000)">
                <rect id="Rectangle-path" fill="#FFFFFF" x="11" y="0.3" width="21.45" height="21.45"></rect>
                <polygon id="Shape" fill="#E42618" points="32.4 0.3 11 0.3 21.7 11.05"></polygon>
                <polygon id="Shape" fill="#E42618" points="32.4 0.3 32.4 21.75 43.15 11.05"></polygon>
                <polygon id="Shape" fill="#E42618" points="11 21.75 32.4 21.75 21.7 11.05"></polygon>
                <polygon id="Shape" fill="#E42618" points="0.25 11.05 11 21.75 11 0.3"></polygon>
            </g>
        </g>
    </g>
</svg>